<svg width="117" height="24" viewBox="0 0 121 24" fill="none" xmlns="http://www.w3.org/2000/svg">
    <path fill="#2329D6" d="M0.422970774,14.6297343 C0.149163881,14.6297343 0.0420973518,14.4435107 0.189366271,14.2048208 L8.75239336,0.326072363 C8.89718405,0.0913990957 9.01456009,0.116708907 9.01456009,0.410219518 L9.01456009,9.3695288 L14.5770292,9.3695288 C14.8508361,9.3695288 14.9579026,9.55575241 14.8106337,9.79444234 L6.24760664,23.6731908 C6.10281595,23.907864 5.98543991,23.8825542 5.98543991,23.5890436 L5.98543991,14.6297343 L0.422970774,14.6297343 Z"></path>
    <path fill="#050633" d="M29.0321292,12.6193306 L29.0321292,6.74347562 L31.8830851,6.74347562 L31.8830851,17.7636535 L29.0321292,17.7636535 L29.0321292,16.2061979 C28.4245484,17.3860885 27.1159129,17.9996316 26.0175938,17.9996316 C23.4470598,17.9996316 21.7177914,16.3713826 21.7177914,13.2564715 L21.7177914,6.74347562 L24.5921158,6.74347562 L24.5921158,12.7373197 C24.5921158,14.5307533 25.6670664,15.191492 26.6719116,15.191492 C27.8637046,15.191492 29.0321292,14.5307533 29.0321292,12.6193306 Z M33.8713541,12.2181678 C33.8713541,8.74928957 36.6288361,6.50749751 39.7602139,6.50749751 C41.5829562,6.50749751 43.2654876,7.28622528 44.2937012,8.65489833 L42.0269576,10.3775385 C41.5128508,9.66960421 40.6482166,9.29203923 39.7602139,9.29203923 C38.1711565,9.29203923 36.6989416,10.4247342 36.6989416,12.2181678 C36.6989416,14.0116015 38.1711565,15.2386877 39.7602139,15.2386877 C40.6482166,15.2386877 41.5128508,14.8375249 42.0269576,14.1295905 L44.3170697,15.8286329 C43.2888561,17.197306 41.6063247,17.9996316 39.7602139,17.9996316 C36.6288361,17.9996316 33.8713541,15.6870461 33.8713541,12.2181678 Z M49.4075503,13.8700146 L49.4075503,17.7636535 L46.5565944,17.7636535 L46.5565944,6.74347562 L49.4075503,6.74347562 L49.4075503,9.33923485 C49.9683941,7.3334209 51.2536611,6.50749751 52.4921912,6.50749751 C53.2633514,6.50749751 53.8475637,6.67268218 54.291565,6.9086603 L53.8008267,9.50441953 C53.1231404,9.19764798 52.4220857,9.19764798 52.1416638,9.19764798 C50.202079,9.19764798 49.4075503,10.943886 49.4075503,13.8700146 Z M65.9076524,12.2181678 C65.9076524,12.5013416 65.8842839,12.9497 65.8609154,13.2092759 L57.5417325,13.2092759 C57.7286805,14.6723402 58.943842,15.569057 60.5562679,15.569057 C61.654587,15.569057 62.7762746,15.0971008 63.2903814,14.1531883 C63.9680676,14.5307533 64.7625963,14.9555139 65.4636511,15.3330789 C64.4821744,17.2209038 62.3790102,17.9996316 60.36932,17.9996316 C57.2613106,17.9996316 54.7141451,15.6870461 54.7141451,12.2181678 C54.7141451,8.74928957 57.2613106,6.50749751 60.36932,6.50749751 C63.4773293,6.50749751 65.9076524,8.74928957 65.9076524,12.2181678 Z M57.518364,11.2506576 L63.1268019,11.2506576 C62.9164855,9.74039764 61.7947979,8.91447425 60.3926885,8.91447425 C58.897105,8.91447425 57.7286805,9.76399545 57.518364,11.2506576 Z M76.419623,17.7636535 L76.419623,16.3477848 C75.7185683,17.4804797 74.1061424,17.9760338 73.0311918,17.9760338 C70.1568674,17.9760338 67.4694909,15.7578395 67.4694909,12.2417656 C67.4694909,8.70209395 70.1568674,6.50749751 73.0311918,6.50749751 C74.0126684,6.50749751 75.6250943,6.88506248 76.419623,8.11214867 L76.419623,6.74347562 L79.2705789,6.74347562 L79.2705789,17.7636535 L76.419623,17.7636535 Z M70.4139208,12.2417656 C70.4139208,14.0116015 71.8627672,15.2150898 73.4284561,15.2150898 C74.9707766,15.2150898 76.419623,14.1295905 76.419623,12.2417656 C76.419623,10.3303429 74.9240396,9.26844142 73.4284561,9.26844142 C71.8627672,9.26844142 70.4139208,10.448332 70.4139208,12.2417656 Z M86.0669594,2.54306522 L86.0669594,6.74347562 L88.3804401,6.74347562 L88.3804401,9.05606112 L86.0669594,9.05606112 L86.0669594,17.7636535 L83.239372,17.7636535 L83.239372,9.05606112 L81.2530502,9.05606112 L81.2530502,6.74347562 L83.239372,6.74347562 L83.239372,2.54306522 L86.0669594,2.54306522 Z M100.738521,12.2181678 C100.738521,12.5013416 100.715153,12.9497 100.691785,13.2092759 L92.3726016,13.2092759 C92.5595495,14.6723402 93.7747111,15.569057 95.387137,15.569057 C96.4854561,15.569057 97.6071437,15.0971008 98.1212505,14.1531883 C98.7989367,14.5307533 99.5934654,14.9555139 100.29452,15.3330789 C99.3130435,17.2209038 97.2098793,17.9996316 95.2001891,17.9996316 C92.0921797,17.9996316 89.5450142,15.6870461 89.5450142,12.2181678 C89.5450142,8.74928957 92.0921797,6.50749751 95.2001891,6.50749751 C98.3081984,6.50749751 100.738521,8.74928957 100.738521,12.2181678 Z M92.3492331,11.2506576 L97.957671,11.2506576 C97.7473546,9.74039764 96.625667,8.91447425 95.2235576,8.91447425 C93.7279741,8.91447425 92.5595495,9.76399545 92.3492331,11.2506576 Z M102.329526,16.2061979 C102.329526,15.1678942 103.170792,14.4127643 104.152268,14.4127643 C105.180482,14.4127643 106.021748,15.1678942 106.021748,16.2061979 C106.021748,17.2445016 105.180482,17.9996316 104.152268,17.9996316 C103.170792,17.9996316 102.329526,17.2445016 102.329526,16.2061979 Z M111.258237,6.74347562 L111.258237,17.7636535 L108.43065,17.7636535 L108.43065,6.74347562 L111.258237,6.74347562 Z M108.010017,2.47227179 C108.010017,1.50476153 108.851282,0.749631568 109.856128,0.749631568 C110.837604,0.749631568 111.655501,1.50476153 111.655501,2.47227179 C111.655501,3.46337986 110.837604,4.21850982 109.856128,4.21850982 C108.851282,4.21850982 108.010017,3.46337986 108.010017,2.47227179 Z M117.686519,2.54306522 L117.686519,6.74347562 L120,6.74347562 L120,9.05606112 L117.686519,9.05606112 L117.686519,17.7636535 L114.858932,17.7636535 L114.858932,9.05606112 L112.87261,9.05606112 L112.87261,6.74347562 L114.858932,6.74347562 L114.858932,2.54306522 L117.686519,2.54306522 Z"></path>
</svg>
